# xmcd
#
# Track frame offsets:
#	150
#	12848
#	25507
#	38165
#	49768
#	60519
#	73143
#	85091
#	99055
#	110544
#	122836
#	134297
#	146950
#	158731
#	169656
#	181359
#	193179
#	204215
#	214903
#	229797
#	242015
#	252244
#	264469
#	275529
#	287669
#
# Disc length: 3986 seconds
#
# Revision: 0
# Processed by: cddbd v1.4PL0 Copyright (c) Steve Scherf et al.
# Submitted via: dBpowerAMP V4.0
#
DISCID=620f9019
DTITLE=Earl Bostic - Bostic Special Vol 2
DYEAR=1900
DGENRE=Shag
TTITLE0=I Hear A Rhapsody
TTITLE1=Where or When
TTITLE2=Out Of Nowhere
TTITLE3=Embraceable You
TTITLE4=Indian Boogie Woogie
TTITLE5=Jungle Drums
TTITLE6=Hello Dolly
TTITLE7=Summertime
TTITLE8=When Your Lover Has Gone
TTITLE9=Josephine
TTITLE10=Just Too Shy
TTITLE11=Dream
TTITLE12=Because Of You
TTITLE13=The Days of Wine and Roses
TTITLE14=The Very Thought of You
TTITLE15=September Song
TTITLE16=Pompton Turnpike
TTITLE17=From Russia with Love
TTITLE18=People Will Say We're In Love
TTITLE19=Sentimental Journey
TTITLE20=For You
TTITLE21=Temptation
TTITLE22=Jeanine, I Dream of Thee
TTITLE23=Blue Skies
TTITLE24=Cocktails for Two
EXTD=
EXTT0=
EXTT1=
EXTT2=
EXTT3=
EXTT4=
EXTT5=
EXTT6=
EXTT7=
EXTT8=
EXTT9=
EXTT10=
EXTT11=
EXTT12=
EXTT13=
EXTT14=
EXTT15=
EXTT16=
EXTT17=
EXTT18=
EXTT19=
EXTT20=
EXTT21=
EXTT22=
EXTT23=
EXTT24=
PLAYORDER=
